<?xml version="1.0" encoding="UTF-8"?><svg id="b" xmlns="http://www.w3.org/2000/svg" viewBox="0 0 1147.9 842.96"><g id="c"><path d="M56.88,781.5c-4.38,4.58-8.77,9.21-13.17,13.9-12.45,13.27-24.49,26.49-36.15,39.64-.17.19.02.48.26.41,35.01-11.13,71.51-23.85,109.22-38.4,27.84-10.74,54.48-21.76,79.92-32.92" fill="none" stroke="#000" stroke-miterlimit="10" stroke-width="15"/><path d="M31.5,797.6c-.38-.19-1.06-.36-1.08-.57-.09-1.49-.05-3-.05-4.5V0h1117.52v797.6H132.79c.39-.37.73-.89,1.19-1.08,35.63-14.85,71.16-29.94,106.93-44.45,52.36-21.24,105.06-41.54,159.34-57.51,33.82-9.95,67.13-21.76,102.16-27.19,10.5-1.63,14.92-6.93,14.16-17.11-.2-2.68-1.62-6.49-3.62-7.46-1.86-.91-5.42.88-7.89,2.14-8.4,4.31-16.25,10.09-25.06,13.13-12.64,4.36-26.1,6.26-38.92,10.17-26.02,7.95-52.02,16.02-77.68,25.02-36.74,12.88-73.49,25.86-109.66,40.23-40.95,16.26-81.29,34.04-121.83,51.31-9.22,3.93-18.17,8.51-27.25,12.79h-54.02c2.52-2.92,4.93-5.93,7.57-8.73,29.9-31.78,59.7-63.65,89.78-95.26,39.39-41.39,78.98-82.58,118.52-123.83,37.72-39.35,75.54-78.61,113.19-118.03,16.81-17.61,33.38-35.44,49.9-53.33,19.81-21.46,39.33-43.18,59.18-64.6,13.87-14.97,28.1-29.62,42.14-44.44,2.94-3.11,5.74-6.35,8.6-9.53.48.31.97.62,1.45.93-3.05,7.94-6.02,15.9-9.15,23.8-16.4,41.37-32.82,82.74-49.29,124.09-2.9,7.29-6.37,14.38-8.92,21.78-.8,2.31.57,5.37.95,8.09,2.35-.95,5.55-1.25,6.9-2.99,3.74-4.83,6.36-10.52,10.08-15.37,4.49-5.85,9.05-11.92,14.67-16.56,6.31-5.2,10.86-3.77,15.24,3.15,1.99,3.15,3.31,6.74,5.36,9.85,8.99,13.7,14.17,19.22,31.26,7.92,12.02-7.96,23.7-16.43,35.58-24.61,2.59-1.78,5.35-3.31,8.04-4.96-.86,3.33-2.59,5.55-3.98,7.96-4.27,7.4-8.64,14.76-12.54,22.36-2.38,4.64-2.57,9.8,2.15,13.17,4.59,3.28,8.8.23,12.05-2.83,5.72-5.37,11.12-11.11,16.37-16.95,8.13-9.04,15.77-18.53,24.11-27.38,6.25-6.64,9.83-5.66,12.4,3,1.82,6.16,4.45,11.56,10.16,14.84,9,5.18,18.71,7.09,28.63,3.69,8.44-2.89,16.64-6.59,24.68-10.48,7.91-3.83,15.49-8.35,23.8-12.89-2.82,10.42-5.64,20.1-8,29.9-.94,3.9-2.75,5.95-6.62,7.18-12.25,3.92-24.44,8.06-36.52,12.47-6.29,2.3-12.51,4.97-18.38,8.17-4.59,2.5-4.33,7.59.22,10.27,3.19,1.88,6.63,3.47,10.13,4.68,10.6,3.67,19.86,9.52,28.16,16.92,5.51,4.92,8.04,10.32,6.77,18.6-2.69,17.54-3.63,35.34-5.33,53.03-.66,6.86-.17,14.13-2.34,20.48-15.87,46.55-32.42,92.87-48.42,139.39-3.64,10.58-6.06,21.59-8.77,32.46-.93,3.71-.94,7.94,3.54,9.47,4.61,1.58,6.88-2,8.37-5.53,8.35-19.8,16.94-39.51,24.71-59.54,12.17-31.36,22.89-63.24,32.27-95.55,3.59-12.38,6.31-25.03,9.29-37.59,3.58-15.1,5.71-30.68,10.81-45.24,8.63-24.67,19.09-48.7,28.79-72.99,3.97-9.96,9.74-17.9,20.96-20.8,24.95-6.45,49.81-13.28,74.74-19.84,3.32-.87,6.81-1.06,11.2-1.7-2.54,5.13-4.95,9.16-6.58,13.49-2.94,7.82-6.23,15.66-7.83,23.8-1.53,7.77,5.31,12.16,12.62,8.97,1.7-.74,3.52-1.47,4.9-2.65,6.8-5.81,14.47-10.98,19.99-17.85,12.45-15.52,30.17-21.01,48.37-28.23-1.5,3.84-2.7,6.71-3.75,9.64-4.66,13-9.56,25.93-13.69,39.1-.8,2.55,1.46,6.05,2.31,9.11,3.14-1.05,7.43-1.16,9.22-3.33,6.64-8.01,12.32-16.82,18.64-25.11,8.68-11.4,17.15-23.01,26.61-33.73,5.48-6.21,12.23-4.67,16.74,2.4,4.12,6.46,7.68,13.31,12.17,19.5,8.71,11.99,20.81,17.29,35.3,13.93,9.37-2.17,18.39-6.14,27.32-9.9,15.83-6.66,31.39-13.97,47.24-20.59,5.65-2.36,11.91-3.2,17.67-5.34,1.78-.66,2.82-3.35,4.19-5.1-1.82-1.02-3.56-2.65-5.48-2.9-2.29-.29-4.87.23-7.1,1.04-7.7,2.8-15.4,5.66-22.93,8.88-18.02,7.72-35.69,16.32-53.98,23.32-18.16,6.95-31.06.96-39.88-16.32-3.31-6.48-6.78-12.92-10.8-18.97-3.7-5.57-9.15-7.11-14.68-3.59-6.39,4.06-12.94,8.56-17.71,14.3-8.79,10.59-16.3,22.23-24.41,33.38-1.3,1.79-2.95,3.32-4.43,4.97-.61-.28-1.22-.57-1.84-.85.54-2.33.78-4.78,1.66-6.97,14.13-35.21,28.38-70.37,42.45-105.6,1.13-2.83,1.43-6.12,1.48-9.21.02-1.2-1.54-3.1-2.74-3.46-1.3-.38-3.68.18-4.42,1.19-1.73,2.36-3.02,5.14-4.04,7.91-8.12,21.9-16.09,43.85-24.24,65.73-.65,1.76-2.05,3.73-3.64,4.55-5.46,2.84-11.2,5.14-16.77,7.79-4.65,2.21-8.65,1.28-12.4-2-4.79-4.19-9.54-8.44-14.51-12.4-6.38-5.07-11.43-5.21-16.67.72-4.63,5.24-10.32,7.86-16.62,9.63-25.7,7.2-51.43,14.34-77.21,21.25-2.75.74-7.51.85-8.57-.68-1.54-2.2-.63-6.17-.58-9.38.01-.87.69-1.72,1.04-2.59,5.55-13.48,10.71-27.14,16.74-40.4,10.27-22.58,21.02-44.94,31.73-67.31,1.53-3.2,3.27-8.06,7.73-6.24,1.87.76,2.63,5.93,2.7,9.12.54,24.02-9.4,44.64-21.48,64.51-4.64,7.63-9.37,15.21-13.73,23.01-.72,1.29.3,3.56.51,5.37,1.81-.48,3.75-.71,5.37-1.55,1.04-.54,1.75-1.9,2.39-3.02,8.03-14.09,16.62-27.9,23.85-42.38,8.97-17.99,13.18-37.36,12.79-57.56-.1-5.37.3-11.73-6.23-13.7-6.95-2.09-10.91,3.3-14.81,7.93-.12.14-.25.28-.34.45-6.68,12.08-14.31,23.73-19.84,36.31-13.24,30.09-25.45,60.64-38.15,90.97-5.88,14.04-21.73,24.01-38.36,23.79,4.54-12.14,7.42-24.91,13.7-35.7,20.69-35.55,43.11-70.1,63.93-105.57,23.64-40.26,45.81-81.37,64.25-124.32,4.62-10.75,7.64-22.22,10.87-33.51.62-2.15-1.25-5.01-1.97-7.54-2.86.85-5.82,1.47-8.54,2.63-1.26.53-2.11,2.07-3.07,3.22-8.86,10.61-18.01,21-26.49,31.91-30.13,38.78-55.49,80.48-73.22,126.33-12.26,31.71-22.57,64.17-33.84,96.26-.62,1.75-1.66,3.87-3.14,4.72-9.39,5.4-18.76,10.89-28.52,15.55-8.2,3.92-16.68,7.75-25.46,9.85-16.01,3.83-27.8-7.6-24.27-22.44.86-3.63,1.98-7.49,1.51-11.05-.37-2.85-2.44-7.07-4.69-7.8-10.46-3.42-21.09-4.13-30.25,3.76-7.55,6.51-15.73,11.79-24.46,16.78-16.36,9.35-31.68,20.56-47.19,31.34-12.63,8.77-18.65,7.28-24.94-6.97-1.28-2.91-2.51-5.84-3.91-8.69-.9-1.84-1.92-3.66-3.18-5.27-4.27-5.45-10.09-6.73-16.49-3.88-2.25,1.01-4.57,1.88-7.86,3.22.86-2.71,1.24-4.11,1.74-5.47,18.09-49.13,36.18-98.25,54.35-147.35.69-1.86,1.87-3.68,3.24-5.12,28.45-29.79,57.99-58.51,84.5-90.17,18.13-21.65,38.09-41.76,56.85-62.9,16.13-18.17,32.12-36.5,47.37-55.41,7.78-9.64,14.38-20.38,20.43-31.23,4.2-7.54.9-12.93-7.77-13.71-6.83-.61-14.06-.88-20.65.66-24.34,5.67-48.83,11.11-72.66,18.55-60.26,18.79-118.67,42.6-176.71,67.31-51.98,22.13-103.55,45.16-152.97,72.66-10.92,6.08-21.19,13.34-31.61,20.28-1.92,1.28-3.12,3.65-4.65,5.51.57.64,1.14,1.29,1.71,1.93,11.95-5.58,24.3-10.45,35.78-16.87,45.44-25.4,91.99-48.55,140.04-68.48,39.28-16.29,78.87-31.94,118.93-46.17,39-13.86,78.7-25.77,118.26-38,7.7-2.38,16.15-2.95,24.29-3.12,5.59-.11,7.78,4.42,5.25,9.42-2.59,5.12-5.16,10.46-8.83,14.79-29.32,34.7-58.71,69.35-88.48,103.66-17.91,20.63-36.28,40.87-54.99,60.78-8.78,9.34-18.84,17.48-28.31,26.16,1.09.55,1.05-.19,1.27-.85,8.88-26.42,17.8-52.83,26.68-79.25,2.03-6.03,4.34-12,5.67-18.19.49-2.28-1.47-5.08-2.32-7.65-1.82,1.37-3.82,2.56-5.38,4.18-.97,1.01-1.38,2.64-1.85,4.05-10.36,31.24-20.6,62.51-31.09,93.71-2.84,8.44-4.77,17.89-9.98,24.68-11.59,15.11-24.58,29.21-37.75,43.02-29.45,30.89-59.97,60.72-87.37,93.58-13.41,16.07-29.01,30.3-43.39,45.58-31.32,33.27-62.33,66.83-93.77,99.98-19.22,20.26-39.22,39.77-58.47,59.99-27.11,28.49-53.46,57.71-80.84,85.92-31.47,32.43-63.73,64.08-95.6,96.12-6.96,7-13.71,14.21-20.56,21.32Z" fill="#fff" stroke-width="0"/><path d="M31.5,797.6c6.85-7.11,13.6-14.32,20.56-21.32,31.87-32.04,64.13-63.7,95.6-96.12,27.38-28.22,53.73-57.44,80.84-85.92,19.25-20.23,39.25-39.74,58.47-59.99,31.44-33.15,62.46-66.71,93.77-99.98,14.38-15.28,29.99-29.51,43.39-45.58,27.4-32.85,57.93-62.68,87.37-93.58,13.16-13.81,26.15-27.92,37.75-43.02,5.21-6.79,7.14-16.24,9.98-24.68,10.49-31.19,20.73-62.47,31.09-93.71.47-1.41.88-3.04,1.85-4.05,1.56-1.62,3.56-2.81,5.38-4.18.84,2.57,2.81,5.37,2.32,7.65-1.33,6.18-3.65,12.16-5.67,18.19-8.88,26.42-17.8,52.83-26.68,79.25-.22.65-.18,1.39-1.27.85,9.48-8.68,19.54-16.82,28.31-26.16,18.71-19.91,37.08-40.15,54.99-60.78,29.78-34.31,59.16-68.96,88.48-103.66,3.66-4.33,6.23-9.67,8.83-14.79,2.53-5,.35-9.54-5.25-9.42-8.13.17-16.58.74-24.29,3.12-39.56,12.23-79.26,24.14-118.26,38-40.06,14.23-79.65,29.89-118.93,46.17-48.05,19.93-94.61,43.08-140.04,68.48-11.48,6.42-23.83,11.29-35.78,16.87-.57-.64-1.14-1.29-1.71-1.93,1.53-1.86,2.73-4.23,4.65-5.51,10.42-6.94,20.69-14.21,31.61-20.28,49.42-27.5,100.99-50.53,152.97-72.66,58.04-24.7,116.45-48.51,176.71-67.31,23.83-7.43,48.32-12.87,72.66-18.55,6.59-1.54,13.82-1.27,20.65-.66,8.68.77,11.97,6.17,7.77,13.71-6.05,10.85-12.64,21.59-20.43,31.23-15.25,18.9-31.24,37.23-47.37,55.41-18.76,21.14-38.72,41.25-56.85,62.9-26.51,31.66-56.05,60.38-84.5,90.17-1.37,1.44-2.55,3.26-3.24,5.12-18.17,49.1-36.26,98.22-54.35,147.35-.5,1.36-.88,2.76-1.74,5.47,3.29-1.34,5.6-2.21,7.86-3.22,6.4-2.85,12.22-1.57,16.49,3.88,1.26,1.6,2.27,3.43,3.18,5.27,1.4,2.85,2.63,5.78,3.91,8.69,6.29,14.24,12.31,15.74,24.94,6.97,15.52-10.77,30.83-21.98,47.19-31.34,8.73-4.99,16.9-10.27,24.46-16.78,9.15-7.89,19.79-7.18,30.25-3.76,2.25.74,4.31,4.95,4.69,7.8.47,3.56-.65,7.42-1.51,11.05-3.54,14.84,8.25,26.27,24.27,22.44,8.78-2.1,17.26-5.93,25.46-9.85,9.76-4.66,19.13-10.15,28.52-15.55,1.48-.85,2.53-2.97,3.14-4.72,11.27-32.09,21.58-64.55,33.84-96.26,17.73-45.85,43.09-87.56,73.22-126.33,8.48-10.91,17.63-21.29,26.49-31.91.96-1.15,1.82-2.68,3.07-3.22,2.73-1.16,5.68-1.79,8.54-2.63.72,2.53,2.59,5.39,1.97,7.54-3.23,11.29-6.26,22.75-10.87,33.51-18.44,42.95-40.62,84.06-64.25,124.32-20.83,35.48-43.24,70.02-63.93,105.57-6.28,10.79-9.16,23.57-13.7,35.7,16.63.22,32.48-9.75,38.36-23.79,12.7-30.33,24.91-60.87,38.15-90.97,5.53-12.58,13.16-24.24,19.84-36.31.09-.16.22-.3.34-.45,3.9-4.63,7.85-10.02,14.81-7.93,6.53,1.97,6.13,8.33,6.23,13.7.39,20.2-3.81,39.57-12.79,57.56-7.23,14.49-15.83,28.29-23.85,42.38-.64,1.12-1.34,2.48-2.39,3.02-1.62.84-3.56,1.06-5.37,1.55-.21-1.81-1.23-4.08-.51-5.37,4.35-7.79,9.09-15.37,13.73-23.01,12.08-19.87,22.01-40.49,21.48-64.51-.07-3.19-.84-8.35-2.7-9.12-4.45-1.82-6.19,3.04-7.73,6.24-10.71,22.37-21.47,44.73-31.73,67.31-6.03,13.26-11.19,26.92-16.74,40.4-.36.87-1.03,1.72-1.04,2.59-.05,3.21-.96,7.18.58,9.38,1.06,1.53,5.83,1.41,8.57.68,25.79-6.9,51.51-14.04,77.21-21.25,6.3-1.76,11.98-4.38,16.62-9.63,5.24-5.93,10.3-5.79,16.67-.72,4.98,3.96,9.72,8.21,14.51,12.4,3.75,3.28,7.74,4.21,12.4,2,5.57-2.65,11.31-4.95,16.77-7.79,1.59-.83,2.99-2.8,3.64-4.55,8.16-21.88,16.13-43.83,24.24-65.73,1.03-2.77,2.31-5.55,4.04-7.91.74-1.01,3.12-1.57,4.42-1.19,1.2.36,2.76,2.26,2.74,3.46-.05,3.09-.35,6.37-1.48,9.21-14.07,35.23-28.32,70.39-42.45,105.6-.88,2.19-1.12,4.64-1.66,6.97.61.28,1.22.57,1.84.85,1.49-1.65,3.14-3.18,4.43-4.97,8.11-11.15,15.62-22.8,24.41-33.38,4.76-5.74,11.32-10.24,17.71-14.3,5.53-3.52,10.98-1.98,14.68,3.59,4.02,6.05,7.49,12.49,10.8,18.97,8.82,17.28,21.72,23.27,39.88,16.32,18.29-7,35.96-15.6,53.98-23.32,7.53-3.23,15.23-6.09,22.93-8.88,2.22-.81,4.8-1.34,7.1-1.04,1.92.25,3.66,1.88,5.48,2.9-1.38,1.76-2.41,4.44-4.19,5.1-5.76,2.14-12.02,2.98-17.67,5.34-15.85,6.61-31.41,13.93-47.24,20.59-8.93,3.76-17.95,7.73-27.32,9.9-14.49,3.36-26.59-1.94-35.3-13.93-4.49-6.18-8.05-13.04-12.17-19.5-4.51-7.07-11.26-8.61-16.74-2.4-9.46,10.72-17.93,22.34-26.61,33.73-6.32,8.29-11.99,17.1-18.64,25.11-1.8,2.17-6.08,2.28-9.22,3.33-.85-3.06-3.11-6.56-2.31-9.11,4.13-13.17,9.02-26.1,13.69-39.1,1.05-2.93,2.25-5.8,3.75-9.64-18.2,7.22-35.91,12.71-48.37,28.23-5.52,6.87-13.19,12.04-19.99,17.85-1.38,1.18-3.2,1.91-4.9,2.65-7.31,3.19-14.15-1.2-12.62-8.97,1.6-8.14,4.89-15.97,7.83-23.8,1.62-4.33,4.04-8.36,6.58-13.49-4.38.65-7.88.83-11.2,1.7-24.93,6.56-49.79,13.38-74.74,19.84-11.22,2.9-16.99,10.84-20.96,20.8-9.7,24.29-20.16,48.32-28.79,72.99-5.09,14.56-7.23,30.15-10.81,45.24-2.98,12.56-5.7,25.2-9.29,37.59-9.38,32.31-20.1,64.19-32.27,95.55-7.77,20.03-16.36,39.74-24.71,59.54-1.49,3.53-3.76,7.1-8.37,5.53-4.48-1.53-4.47-5.76-3.54-9.47,2.71-10.88,5.13-21.89,8.77-32.46,15.99-46.51,32.55-92.83,48.42-139.39,2.17-6.36,1.68-13.63,2.34-20.48,1.7-17.69,2.64-35.5,5.33-53.03,1.27-8.28-1.25-13.68-6.77-18.6-8.3-7.4-17.56-13.25-28.16-16.92-3.5-1.21-6.93-2.8-10.13-4.68-4.55-2.68-4.81-7.78-.22-10.27,5.87-3.2,12.09-5.87,18.38-8.17,12.08-4.41,24.27-8.55,36.52-12.47,3.86-1.24,5.68-3.29,6.62-7.18,2.36-9.79,5.17-19.48,8-29.9-8.31,4.54-15.89,9.06-23.8,12.89-8.04,3.89-16.24,7.59-24.68,10.48-9.92,3.4-19.63,1.49-28.63-3.69-5.71-3.29-8.34-8.69-10.16-14.84-2.57-8.67-6.15-9.64-12.4-3-8.33,8.85-15.97,18.34-24.11,27.38-5.25,5.84-10.65,11.58-16.37,16.95-3.25,3.06-7.46,6.11-12.05,2.83-4.72-3.37-4.53-8.52-2.15-13.17,3.9-7.6,8.26-14.96,12.54-22.36,1.39-2.41,3.12-4.63,3.98-7.96-2.68,1.65-5.45,3.17-8.04,4.96-11.88,8.18-23.56,16.65-35.58,24.61-17.08,11.3-22.26,5.78-31.26-7.92-2.04-3.11-3.36-6.7-5.36-9.85-4.37-6.92-8.92-8.35-15.24-3.15-5.63,4.64-10.19,10.71-14.67,16.56-3.72,4.85-6.34,10.54-10.08,15.37-1.35,1.74-4.54,2.03-6.9,2.99-.38-2.72-1.74-5.77-.95-8.09,2.55-7.41,6.01-14.49,8.92-21.78,16.47-41.35,32.89-82.71,49.29-124.09,3.13-7.9,6.11-15.87,9.15-23.8-.48-.31-.97-.62-1.45-.93-2.86,3.18-5.66,6.42-8.6,9.53-14.04,14.82-28.26,29.47-42.14,44.44-19.85,21.42-39.37,43.14-59.18,64.6-16.51,17.89-33.09,35.72-49.9,53.33-37.64,39.43-75.47,78.68-113.19,118.03-39.54,41.25-79.13,82.44-118.52,123.83-30.08,31.61-59.89,63.48-89.78,95.26-2.64,2.8-5.05,5.82-7.57,8.73h-19.13ZM884.06,148.4c-32,15.81-124.59,189.49-129.64,240.13.85-1,1.5-1.58,1.92-2.3,15.03-25.49,30.77-50.6,44.88-76.59,25.96-47.81,51.01-96.12,76.26-144.31,2.79-5.33,4.41-11.27,6.58-16.93ZM723.99,504.9c2.14,2.69,4.08,7.18,7.43,8.83,4.06,2,6.05-2.79,7.33-5.89,7.21-17.43,14.3-34.92,21.12-52.5,2.39-6.17-.85-9.41-7.36-8.02-16.74,3.57-16.84,3.55-20.58,20.08-2.72,12.04-5.13,24.15-7.95,37.51ZM718.18,495.83c2.94-13.58,5.9-27.27,9.18-42.39-12.83,5-24.34,9.29-35.68,14-6.64,2.76-6.84,6.3-.97,10.22,8.97,5.98,17.98,11.9,27.47,18.17ZM594.72,445.87c.65.27,1.3.53,1.95.8,1.03-.71,2.25-1.25,3.08-2.15,10-10.83,19.99-21.67,29.88-32.61,2.63-2.9,5.27-5.92,7.16-9.31.96-1.73.28-4.37.34-6.6-2.06.05-4.68-.68-6.08.31-4.08,2.88-8.37,5.92-11.33,9.84-7.96,10.53-15.38,21.48-22.76,32.44-1.36,2.01-1.52,4.83-2.23,7.28ZM886.71,420.2c-3.01,2.28-6.01,3.52-7.33,5.75-3,5.08-5.4,10.56-7.58,16.06-.72,1.81,0,4.19.07,6.31,2.22-.46,4.92-.27,6.58-1.5,4.79-3.53,9.5-7.29,13.53-11.63,2.01-2.16,4.03-6.37,3.19-8.56-1-2.6-5.07-4.03-8.47-6.44ZM709.88,614.94c-.68-.23-1.35-.46-2.03-.69-11.18,32.39-22.37,64.78-33.55,97.17.64.22,1.28.44,1.92.65,12.88-31.81,24.49-64.06,33.66-97.13ZM721.52,522.67c-.97,11.17-1.93,22.34-2.9,33.51.48.04.97.08,1.45.13,3.57-11,8.62-21.86,1.45-33.64ZM901.75,416.96c2.72-2.76,4.56-4.63,6.4-6.5-1.86-1.46-3.94-4.33-5.53-4.08-2.8.44-5.3,2.78-7.93,4.32,2.03,1.8,4.06,3.59,7.07,6.26Z" fill="#000" stroke-width="0"/><path d="M104.65,797.6c9.08-4.28,18.02-8.86,27.25-12.79,40.54-17.28,80.89-35.05,121.83-51.31,36.17-14.37,72.92-27.35,109.66-40.23,25.67-9,51.67-17.07,77.68-25.02,12.81-3.92,26.28-5.82,38.92-10.17,8.81-3.04,16.66-8.82,25.06-13.13,2.47-1.27,6.03-3.05,7.89-2.14,2,.98,3.42,4.78,3.62,7.46.77,10.18-3.66,15.48-14.16,17.11-35.03,5.43-68.34,17.25-102.16,27.19-54.28,15.97-106.98,36.27-159.34,57.51-35.77,14.51-71.3,29.6-106.93,44.45-.47.19-.8.72-1.19,1.08h-28.14Z" fill="#000" stroke-width="0"/><path d="M884.06,148.4c-2.17,5.66-3.79,11.6-6.58,16.93-25.25,48.19-50.31,96.5-76.26,144.31-14.11,25.99-29.85,51.1-44.88,76.59-.42.72-1.07,1.3-1.92,2.3,5.06-50.63,97.64-224.32,129.64-240.13Z" fill="#fff" stroke-width="0"/><path d="M723.99,504.9c2.82-13.36,5.23-25.47,7.95-37.51,3.73-16.53,3.83-16.51,20.58-20.08,6.5-1.39,9.75,1.86,7.36,8.02-6.82,17.59-13.91,35.07-21.12,52.5-1.28,3.1-3.27,7.89-7.33,5.89-3.34-1.65-5.29-6.14-7.43-8.83Z" fill="#fff" stroke-width="0"/><path d="M718.18,495.83c-9.5-6.28-18.51-12.19-27.47-18.17-5.86-3.91-5.67-7.45.97-10.22,11.34-4.72,22.85-9,35.68-14-3.27,15.12-6.24,28.81-9.18,42.39Z" fill="#fff" stroke-width="0"/><path d="M594.72,445.87c.71-2.45.87-5.27,2.23-7.28,7.38-10.95,14.79-21.91,22.76-32.44,2.96-3.92,7.25-6.96,11.33-9.84,1.4-.99,4.02-.26,6.08-.31-.06,2.23.62,4.88-.34,6.6-1.89,3.38-4.53,6.4-7.16,9.31-9.89,10.94-19.88,21.78-29.88,32.61-.83.9-2.04,1.44-3.08,2.15-.65-.27-1.3-.53-1.95-.8Z" fill="#fff" stroke-width="0"/><path d="M886.71,420.2c3.4,2.41,7.47,3.83,8.47,6.44.84,2.19-1.19,6.4-3.19,8.56-4.03,4.34-8.75,8.1-13.53,11.63-1.66,1.22-4.36,1.04-6.58,1.5-.06-2.12-.78-4.5-.07-6.31,2.18-5.5,4.57-10.98,7.58-16.06,1.32-2.23,4.32-3.48,7.33-5.75Z" fill="#fff" stroke-width="0"/><path d="M709.88,614.94c-9.17,33.07-20.78,65.32-33.66,97.13-.64-.22-1.28-.44-1.92-.65,11.18-32.39,22.37-64.78,33.55-97.17.68.23,1.35.46,2.03.69Z" fill="#fff" stroke-width="0"/><path d="M721.52,522.67c7.17,11.78,2.12,22.64-1.45,33.64-.48-.04-.97-.08-1.45-.13.97-11.17,1.93-22.34,2.9-33.51Z" fill="#fff" stroke-width="0"/><path d="M901.75,416.96c-3.01-2.66-5.04-4.46-7.07-6.26,2.63-1.54,5.13-3.89,7.93-4.32,1.59-.25,3.67,2.62,5.53,4.08-1.84,1.87-3.68,3.74-6.4,6.5Z" fill="#fff" stroke-width="0"/></g></svg>